<svg width="604" height="226" viewBox="0 0 604 226" fill="none" xmlns="http://www.w3.org/2000/svg">
<path fill-rule="evenodd" clip-rule="evenodd" d="M32.4517 172.905V75.2202L56.0205 58.5219V109.034L86.4722 87.7439V3L2 61.4441V194.196L32.4517 172.905ZM109.624 53.0945V150.78L86.0551 167.478V116.966L55.6034 138.256V223L140.076 164.556V31.8042L109.624 53.0945Z" fill="#1E78FF"/>
<path d="M32.4517 75.2202L31.7772 74.2683L31.285 74.617V75.2202H32.4517ZM32.4517 172.905L33.1202 173.861L33.6184 173.513V172.905H32.4517ZM56.0205 58.5219H57.1871V56.2655L55.346 57.5699L56.0205 58.5219ZM56.0205 109.034H54.8538V111.274L56.689 109.99L56.0205 109.034ZM86.4722 87.7439L87.1407 88.7001L87.6388 88.3518V87.7439H86.4722ZM86.4722 3H87.6388V0.774131L85.8084 2.04058L86.4722 3ZM2 61.4441L1.3362 60.4847L0.833333 60.8326V61.4441H2ZM2 194.196H0.833333V196.435L2.6685 195.152L2 194.196ZM109.624 150.78L110.298 151.732L110.791 151.383V150.78H109.624ZM109.624 53.0945L108.955 52.1384L108.457 52.4867V53.0945H109.624ZM86.0551 167.478H84.8884V169.734L86.7295 168.43L86.0551 167.478ZM86.0551 116.966H87.2217V114.726L85.3866 116.009L86.0551 116.966ZM55.6034 138.256L54.9349 137.3L54.4367 137.648V138.256H55.6034ZM55.6034 223H54.4367V225.226L56.2672 223.959L55.6034 223ZM140.076 164.556L140.739 165.515L141.242 165.167V164.556H140.076ZM140.076 31.8042H141.242V29.565L139.407 30.848L140.076 31.8042ZM31.285 75.2202V172.905H33.6184V75.2202H31.285ZM55.346 57.5699L31.7772 74.2683L33.1262 76.1722L56.6949 59.4739L55.346 57.5699ZM57.1871 109.034V58.5219H54.8538V109.034H57.1871ZM85.8037 86.7878L55.352 108.078L56.689 109.99L87.1407 88.7001L85.8037 86.7878ZM85.3055 3V87.7439H87.6388V3H85.3055ZM2.6638 62.4035L87.136 3.95942L85.8084 2.04058L1.3362 60.4847L2.6638 62.4035ZM3.16667 194.196V61.4441H0.833333V194.196H3.16667ZM31.7832 171.949L1.3315 193.24L2.6685 195.152L33.1202 173.861L31.7832 171.949ZM110.791 150.78V53.0945H108.457V150.78H110.791ZM86.7295 168.43L110.298 151.732L108.949 149.828L85.3806 166.526L86.7295 168.43ZM84.8884 116.966V167.478H87.2217V116.966H84.8884ZM56.2719 139.212L86.7235 117.922L85.3866 116.009L54.9349 137.3L56.2719 139.212ZM56.77 223V138.256H54.4367V223H56.77ZM139.412 163.596L54.9396 222.04L56.2672 223.959L140.739 165.515L139.412 163.596ZM138.909 31.8042V164.556H141.242V31.8042H138.909ZM110.292 54.0507L140.744 32.7603L139.407 30.848L108.955 52.1384L110.292 54.0507Z" fill="#1E78FF"/>
<path d="M242.009 85.16V141H230.809V117.24H206.889V141H195.689V85.16H206.889V108.12H230.809V85.16H242.009ZM295.433 96.68L267.993 161.96H256.073L265.673 139.88L247.913 96.68H260.473L271.913 127.64L283.513 96.68H295.433ZM312.671 103.08C314.111 101.053 316.084 99.3733 318.591 98.04C321.151 96.6533 324.057 95.96 327.311 95.96C331.097 95.96 334.511 96.8933 337.551 98.76C340.644 100.627 343.071 103.293 344.831 106.76C346.644 110.173 347.551 114.147 347.551 118.68C347.551 123.213 346.644 127.24 344.831 130.76C343.071 134.227 340.644 136.92 337.551 138.84C334.511 140.76 331.097 141.72 327.311 141.72C324.057 141.72 321.177 141.053 318.671 139.72C316.217 138.387 314.217 136.707 312.671 134.68V162.12H301.471V96.68H312.671V103.08ZM336.111 118.68C336.111 116.013 335.551 113.72 334.431 111.8C333.364 109.827 331.924 108.333 330.111 107.32C328.351 106.307 326.431 105.8 324.351 105.8C322.324 105.8 320.404 106.333 318.591 107.4C316.831 108.413 315.391 109.907 314.271 111.88C313.204 113.853 312.671 116.173 312.671 118.84C312.671 121.507 313.204 123.827 314.271 125.8C315.391 127.773 316.831 129.293 318.591 130.36C320.404 131.373 322.324 131.88 324.351 131.88C326.431 131.88 328.351 131.347 330.111 130.28C331.924 129.213 333.364 127.693 334.431 125.72C335.551 123.747 336.111 121.4 336.111 118.68ZM396.889 117.88C396.889 119.48 396.783 120.92 396.569 122.2H364.169C364.436 125.4 365.556 127.907 367.529 129.72C369.503 131.533 371.929 132.44 374.809 132.44C378.969 132.44 381.929 130.653 383.689 127.08H395.769C394.489 131.347 392.036 134.867 388.409 137.64C384.783 140.36 380.329 141.72 375.049 141.72C370.783 141.72 366.943 140.787 363.529 138.92C360.169 137 357.529 134.307 355.609 130.84C353.743 127.373 352.809 123.373 352.809 118.84C352.809 114.253 353.743 110.227 355.609 106.76C357.476 103.293 360.089 100.627 363.449 98.76C366.809 96.8933 370.676 95.96 375.049 95.96C379.263 95.96 383.023 96.8667 386.329 98.68C389.689 100.493 392.276 103.08 394.089 106.44C395.956 109.747 396.889 113.56 396.889 117.88ZM385.289 114.68C385.236 111.8 384.196 109.507 382.169 107.8C380.143 106.04 377.663 105.16 374.729 105.16C371.956 105.16 369.609 106.013 367.689 107.72C365.823 109.373 364.676 111.693 364.249 114.68H385.289ZM416.264 103.56C417.704 101.213 419.571 99.3733 421.864 98.04C424.211 96.7067 426.878 96.04 429.864 96.04V107.8H426.904C423.384 107.8 420.718 108.627 418.904 110.28C417.144 111.933 416.264 114.813 416.264 118.92V141H405.064V96.68H416.264V103.56ZM498.848 96.68L485.888 141H473.808L465.728 110.04L457.648 141H445.488L432.448 96.68H443.808L451.648 130.44L460.128 96.68H471.968L480.288 130.36L488.128 96.68H498.848ZM546.108 117.88C546.108 119.48 546.001 120.92 545.788 122.2H513.388C513.655 125.4 514.775 127.907 516.748 129.72C518.721 131.533 521.148 132.44 524.028 132.44C528.188 132.44 531.148 130.653 532.908 127.08H544.988C543.708 131.347 541.255 134.867 537.628 137.64C534.001 140.36 529.548 141.72 524.268 141.72C520.001 141.72 516.161 140.787 512.748 138.92C509.388 137 506.748 134.307 504.828 130.84C502.961 127.373 502.028 123.373 502.028 118.84C502.028 114.253 502.961 110.227 504.828 106.76C506.695 103.293 509.308 100.627 512.668 98.76C516.028 96.8933 519.895 95.96 524.268 95.96C528.481 95.96 532.241 96.8667 535.548 98.68C538.908 100.493 541.495 103.08 543.308 106.44C545.175 109.747 546.108 113.56 546.108 117.88ZM534.508 114.68C534.455 111.8 533.415 109.507 531.388 107.8C529.361 106.04 526.881 105.16 523.948 105.16C521.175 105.16 518.828 106.013 516.908 107.72C515.041 109.373 513.895 111.693 513.468 114.68H534.508ZM565.483 103.16C566.923 101.027 568.896 99.2933 571.403 97.96C573.963 96.6267 576.87 95.96 580.123 95.96C583.91 95.96 587.323 96.8933 590.363 98.76C593.456 100.627 595.883 103.293 597.643 106.76C599.456 110.173 600.363 114.147 600.363 118.68C600.363 123.213 599.456 127.24 597.643 130.76C595.883 134.227 593.456 136.92 590.363 138.84C587.323 140.76 583.91 141.72 580.123 141.72C576.816 141.72 573.91 141.08 571.403 139.8C568.95 138.467 566.976 136.76 565.483 134.68V141H554.283V81.8H565.483V103.16ZM588.923 118.68C588.923 116.013 588.363 113.72 587.243 111.8C586.176 109.827 584.736 108.333 582.923 107.32C581.163 106.307 579.243 105.8 577.163 105.8C575.136 105.8 573.216 106.333 571.403 107.4C569.643 108.413 568.203 109.907 567.083 111.88C566.016 113.853 565.483 116.173 565.483 118.84C565.483 121.507 566.016 123.827 567.083 125.8C568.203 127.773 569.643 129.293 571.403 130.36C573.216 131.373 575.136 131.88 577.163 131.88C579.243 131.88 581.163 131.347 582.923 130.28C584.736 129.213 586.176 127.693 587.243 125.72C588.363 123.747 588.923 121.4 588.923 118.68Z" fill="black"/>
</svg>
